<?xml version="1.0" standalone="no"?><!DOCTYPE svg PUBLIC "-//W3C//DTD SVG 1.1//EN" "http://www.w3.org/Graphics/SVG/1.1/DTD/svg11.dtd"><svg t="1535421453842" class="icon" style="" viewBox="0 0 1024 1024" version="1.1" xmlns="http://www.w3.org/2000/svg" p-id="6009" xmlns:xlink="http://www.w3.org/1999/xlink" width="200" height="200"><defs><style type="text/css"></style></defs><path d="M582.61 346.86A109.5 109.5 0 0 1 727 510.78l-0.05-0.05a27.37 27.37 0 1 1-39.29-38.13q0.79-0.81 1.65-1.56a54.75 54.75 0 0 0-73.61-80.48l-0.05-0.05a27.37 27.37 0 0 1-33-43.64zM895.21 458.69a27.37 27.37 0 0 1-27.37 27.37h-27.38a27.37 27.37 0 0 1 0-54.75h27.37a27.37 27.37 0 0 1 27.38 27.38zM585.73 213.05a27.37 27.37 0 0 1 32.84 20.5l6.13 26.64a27.37 27.37 0 0 1-53.33 12.32l-6.16-26.66A27.37 27.37 0 0 1 585.73 213zM817.27 266.41a27.37 27.37 0 0 1 4.05 38.49l-17.25 21.27a27.37 27.37 0 0 1-43.4-33.37q0.42-0.54 0.86-1.07l17.25-21.27a27.37 27.37 0 0 1 38.49-4.05z" p-id="6010" fill="#67F7F9"></path><path d="M565.37 707.63c45.58-8 83.49-48.86 83.49-96.47a96.77 96.77 0 0 0-96.93-96.61c0-74.68-60.77-135.23-135.7-135.23s-135.75 60.56-135.75 135.24a96.77 96.77 0 0 0-96.93 96.61c0 47.69 39.17 88.64 84.92 96.52a27.37 27.37 0 0 1-4.52 54.56c-75.36-4.49-135.15-68-135.15-145.74 0-67.42 45-124.17 106.16-141 16.81-86.09 91.57-151 181.22-151s164.47 64.91 181.25 151c61.16 16.78 106.16 73.53 106.16 141 0 77.11-58.86 140.27-133.45 145.61a27.37 27.37 0 0 1-4.76-54.5z" p-id="6011" fill="#67F7F9"></path><path d="M403.28 710.18v-21.71a13.69 13.69 0 0 1 27.37 0v21.71L446 694.85a13.7 13.7 0 0 1 19.38 19.35L450 729.53h21.71a13.69 13.69 0 0 1 0 27.37H450l15.33 15.33A13.7 13.7 0 1 1 446 791.62l-15.33-15.33V798a13.69 13.69 0 0 1-27.37 0v-21.74L388 791.62a13.7 13.7 0 1 1-19.38-19.35l15.33-15.33h-21.73a13.69 13.69 0 0 1 0-27.37h21.71l-15.36-15.37a13.7 13.7 0 1 1 19.35-19.38l15.33 15.36z" p-id="6012" fill="#67F7F9"></path></svg>