<?xml version="1.0" standalone="no"?><!DOCTYPE svg PUBLIC "-//W3C//DTD SVG 1.1//EN" "http://www.w3.org/Graphics/SVG/1.1/DTD/svg11.dtd"><svg t="1535421433875" class="icon" style="" viewBox="0 0 1024 1024" version="1.1" xmlns="http://www.w3.org/2000/svg" p-id="5165" xmlns:xlink="http://www.w3.org/1999/xlink" width="200" height="200"><defs><style type="text/css"></style></defs><path d="M753.86 326.81C731.45 213.7 631.69 128.4 512 128.4s-219.5 85.3-241.91 198.41a191.8 191.8 0 0 0-141.9 185.39c0.11 105.93 86.06 191.71 192 191.6h383.6a191.8 191.8 0 0 0 185.39-141.9c27.54-102.29-33.04-207.54-135.32-235.09zM703.77 649H320.18a137 137 0 1 1 0-274c0-105.93 85.87-191.8 191.8-191.8s191.8 85.87 191.8 191.8a137 137 0 1 1 0 274z" p-id="5166" fill="#67F7F9"></path><path d="M513.29 794v-21.7a13.7 13.7 0 0 1 27.4 0V794L556 778.68A13.7 13.7 0 0 1 575.43 798l-15.34 15.4h21.7a13.7 13.7 0 0 1 0 27.4h-21.73l15.34 15.34a13.7 13.7 0 0 1-19.34 19.4l-15.34-15.34v21.7a13.7 13.7 0 0 1-27.4 0v-21.73l-15.4 15.34a13.7 13.7 0 0 1-19.37-19.34l15.37-15.37h-21.73a13.7 13.7 0 0 1 0-27.4h21.73l-15.34-15.34a13.7 13.7 0 1 1 19-19.73l0.34 0.33L513.29 794z" p-id="5167" fill="#67F7F9"></path></svg>