<?xml version="1.0" standalone="no"?><!DOCTYPE svg PUBLIC "-//W3C//DTD SVG 1.1//EN" "http://www.w3.org/Graphics/SVG/1.1/DTD/svg11.dtd"><svg t="1535421441164" class="icon" style="" viewBox="0 0 1024 1024" version="1.1" xmlns="http://www.w3.org/2000/svg" p-id="5500" xmlns:xlink="http://www.w3.org/1999/xlink" width="200" height="200"><defs><style type="text/css"></style></defs><path d="M754 326.72c-22.42-113.16-122.23-198.5-242-198.5s-219.6 85.34-242 198.5a191.89 191.89 0 0 0-142 185.47c0.11 106 86.1 191.8 192.08 191.7h383.78a191.89 191.89 0 0 0 185.48-142c27.57-102.3-33.04-207.6-135.34-235.17z m-50.14 322.34H320.09a137.06 137.06 0 1 1 0-274.13C320.09 269 406 183 512 183s191.86 86 191.86 191.94a137.06 137.06 0 1 1 0 274.13z" p-id="5501" fill="#67F7F9"></path><path d="M621.63 794.16v-21.74a13.71 13.71 0 0 1 27.41 0v21.74l15.35-15.35a13.71 13.71 0 0 1 19.41 19.35l-15.35 15.38h21.71a13.71 13.71 0 0 1 0 27.41h-21.74l15.35 15.35a13.71 13.71 0 0 1-19.35 19.41L649 860.36v21.71a13.71 13.71 0 1 1-27.41 0v-21.74l-15.35 15.35a13.71 13.71 0 0 1-19.41-19.35L602.22 841h-21.71a13.71 13.71 0 0 1 0-27.41h21.74l-15.35-15.4a13.71 13.71 0 0 1 19.35-19.41l15.38 15.35zM374.91 772.42a13.71 13.71 0 0 1 27.41 0v21.74l15.35-15.35a13.71 13.71 0 0 1 19.41 19.35l-15.35 15.38h21.71a13.71 13.71 0 0 1 0 27.41h-21.73l15.35 15.35a13.71 13.71 0 0 1-19.35 19.41l-15.38-15.35v21.71a13.71 13.71 0 1 1-27.41 0v-21.74l-15.35 15.35a13.71 13.71 0 0 1-19.41-19.35L355.5 841h-21.71a13.71 13.71 0 0 1 0-27.41h21.74l-15.35-15.35a13.71 13.71 0 0 1 19.35-19.41l15.38 15.35z" p-id="5502" fill="#67F7F9"></path></svg>