<?xml version="1.0" standalone="no"?><!DOCTYPE svg PUBLIC "-//W3C//DTD SVG 1.1//EN" "http://www.w3.org/Graphics/SVG/1.1/DTD/svg11.dtd"><svg t="1535421363470" class="icon" style="" viewBox="0 0 1024 1024" version="1.1" xmlns="http://www.w3.org/2000/svg" p-id="2620" xmlns:xlink="http://www.w3.org/1999/xlink" width="200" height="200"><defs><style type="text/css"></style></defs><path d="M236.14 751.71c-95.64-46.22-135.71-161.22-89.49-256.86a192.34 192.34 0 0 1 122.91-102C292 279.54 392.06 194 512 194s220 85.5 242.46 198.87C857 420.7 917.59 526.34 889.8 628.87A192.34 192.34 0 0 1 788 751.66h-0.05a27.47 27.47 0 0 1-23.56-49.63A137.32 137.32 0 0 0 704.3 441.2C704.28 335 618.2 249 512 249s-192.23 86-192.23 192.22a137.32 137.32 0 0 0-58.94 261.41 27.48 27.48 0 1 1-24.72 49.08z" p-id="2621" fill="#67F7F9"></path><path d="M391.1 727.43a27.46 27.46 0 0 1 13.28 36.5l-23.21 49.77A27.46 27.46 0 1 1 331 791.25q0.17-0.38 0.36-0.76l23.21-49.77a27.46 27.46 0 0 1 36.49-13.3zM679.48 727.43a27.46 27.46 0 0 1 13.28 36.5l-23.21 49.77a27.46 27.46 0 0 1-50.12-22.47q0.17-0.38 0.36-0.76L643 740.72a27.46 27.46 0 0 1 36.49-13.3z" p-id="2622" fill="#67F7F9"></path><path d="M457.1 715.87l109.86 0 0 109.86-109.86 0 0-109.86Z" p-id="2623" fill="#67F7F9"></path></svg>