<?xml version="1.0" standalone="no"?><!DOCTYPE svg PUBLIC "-//W3C//DTD SVG 1.1//EN" "http://www.w3.org/Graphics/SVG/1.1/DTD/svg11.dtd"><svg t="1535421445399" class="icon" style="" viewBox="0 0 1024 1024" version="1.1" xmlns="http://www.w3.org/2000/svg" p-id="5668" xmlns:xlink="http://www.w3.org/1999/xlink" width="200" height="200"><defs><style type="text/css"></style></defs><path d="M278.72 387.48m-27.44 0a27.44 27.44 0 1 0 54.88 0 27.44 27.44 0 1 0-54.88 0Z" p-id="5669" fill="#67F7F9"></path><path d="M182.74 470.84m-27.44 0a27.44 27.44 0 1 0 54.88 0 27.44 27.44 0 1 0-54.88 0Z" p-id="5670" fill="#67F7F9"></path><path d="M374.81 498.28a27.44 27.44 0 1 1 27.41-27.44 27.44 27.44 0 0 1-27.41 27.44z" p-id="5671" fill="#67F7F9"></path><path d="M182.74 306.32m-27.44 0a27.44 27.44 0 1 0 54.88 0 27.44 27.44 0 1 0-54.88 0Z" p-id="5672" fill="#67F7F9"></path><path d="M649.19 608H155.3a27.44 27.44 0 1 1 0-54.88h493.89a109.75 109.75 0 1 0-109.77-109.7v1.93a27.44 27.44 0 0 1-54.88-0.55v-1.4A164.63 164.63 0 1 1 649.19 608z" p-id="5673" fill="#67F7F9"></path><path d="M374.81 333.76a27.44 27.44 0 1 1 27.41-27.44 27.44 27.44 0 0 1-27.41 27.44z" p-id="5674" fill="#67F7F9"></path><path d="M155.3 690.35h713.4a27.44 27.44 0 1 1 0 54.88H155.3a27.44 27.44 0 0 1 0-54.88z" p-id="5675" fill="#67F7F9"></path></svg>