<?xml version="1.0" standalone="no"?><!DOCTYPE svg PUBLIC "-//W3C//DTD SVG 1.1//EN" "http://www.w3.org/Graphics/SVG/1.1/DTD/svg11.dtd"><svg t="1535421494642" class="icon" style="" viewBox="0 0 1024 1024" version="1.1" xmlns="http://www.w3.org/2000/svg" p-id="7061" xmlns:xlink="http://www.w3.org/1999/xlink" width="200" height="200"><defs><style type="text/css"></style></defs><path d="M753.88 340.49C731.47 227.38 631.7 142.07 512 142.07s-219.49 85.3-241.91 198.42a191.81 191.81 0 0 0-141.92 185.4c0.11 105.94 86.07 191.73 192 191.62h383.62a191.81 191.81 0 0 0 185.4-141.91c27.56-102.29-33.02-207.6-135.31-235.11z m-50.09 322.22H320.16a137 137 0 0 1 0-274c0-105.96 85.84-191.83 191.84-191.83s191.81 85.88 191.81 191.81a137 137 0 0 1 0 274z" p-id="7062" fill="#67F7F9"></path><path d="M361.26 881.93c-22.69 0-41.1-19.62-41.1-43.84q0-24.25 41.1-65.76 41.1 41.51 41.1 65.76c0.01 24.22-18.36 43.84-41.1 43.84zM512 881.93c-22.69 0-41.1-19.62-41.1-43.84q0-24.25 41.1-65.76 41.1 41.51 41.1 65.76c-0.02 24.22-18.43 43.84-41.1 43.84zM662.69 881.93c-22.69 0-41.1-19.62-41.1-43.84q0-24.25 41.1-65.76 41.1 41.51 41.1 65.76c0 24.22-18.41 43.84-41.1 43.84z" p-id="7063" fill="#67F7F9"></path></svg>