<?xml version="1.0" standalone="no"?><!DOCTYPE svg PUBLIC "-//W3C//DTD SVG 1.1//EN" "http://www.w3.org/Graphics/SVG/1.1/DTD/svg11.dtd"><svg t="1535421273619" class="icon" style="" viewBox="0 0 1024 1024" version="1.1" xmlns="http://www.w3.org/2000/svg" p-id="1119" xmlns:xlink="http://www.w3.org/1999/xlink" width="200" height="200"><defs><style type="text/css"></style></defs><path d="M753.84 327.78C731.43 214.69 631.67 129.4 512 129.4s-219.47 85.29-241.88 198.38a191.78 191.78 0 0 0-141.89 185.37c0.11 105.92 86.06 191.69 192 191.59h383.52a191.78 191.78 0 0 0 185.37-141.89c27.56-102.27-33.01-207.51-135.28-235.07z m-50.09 322.16H320.2a137 137 0 0 1 0-274c0-105.88 85.86-191.74 191.8-191.74S703.75 270.06 703.75 376a137 137 0 0 1 0 274z" p-id="1120" fill="#67F7F9"></path><path d="M261.16 737.26a27.4 27.4 0 0 1 13.28 36.4l-23.15 49.64a27.4 27.4 0 1 1-49.67-23.15l23.15-49.67a27.4 27.4 0 0 1 36.4-13.28zM535.18 737.26a27.4 27.4 0 0 1 13.25 36.41l-23.15 49.64A27.4 27.4 0 0 1 475 801.46q0.28-0.64 0.59-1.27l23.15-49.67a27.4 27.4 0 0 1 36.4-13.26zM809.1 737.26a27.4 27.4 0 0 1 13.28 36.4l-23.15 49.64a27.4 27.4 0 1 1-49.67-23.15l23.15-49.67a27.4 27.4 0 0 1 36.4-13.28zM398.2 792.05a27.4 27.4 0 0 1 13.25 36.41L388.3 878.1a27.4 27.4 0 0 1-50.3-21.84q0.28-0.64 0.59-1.27l23.15-49.67A27.4 27.4 0 0 1 398.19 792zM665.32 792.05a27.4 27.4 0 0 1 13.25 36.41l-23.17 49.67a27.4 27.4 0 0 1-50.24-21.88q0.28-0.64 0.59-1.27l23.15-49.67A27.4 27.4 0 0 1 665.31 792z" p-id="1121" fill="#67F7F9"></path></svg>