<?xml version="1.0" standalone="no"?><!DOCTYPE svg PUBLIC "-//W3C//DTD SVG 1.1//EN" "http://www.w3.org/Graphics/SVG/1.1/DTD/svg11.dtd"><svg t="1535421399478" class="icon" style="" viewBox="0 0 1024 1024" version="1.1" xmlns="http://www.w3.org/2000/svg" p-id="3805" xmlns:xlink="http://www.w3.org/1999/xlink" width="200" height="200"><defs><style type="text/css"></style></defs><path d="M597.63 366.47C580.81 280.16 505.85 215.11 416 215.11s-164.83 65-181.65 151.33C173 383.26 127.9 440.16 127.9 507.73c0 80.82 64.47 146.34 144 146.34H560c79.56 0 144-65.52 144-146.31 0-67.6-45.06-124.5-106.37-141.29z m51.55 135.89A97 97 0 0 1 552 599.2H280c-53.66 0-97.18-43.35-97.18-96.82A97 97 0 0 1 280 405.54C280 330.67 340.86 270 416 270s136 60.69 136 135.56c53.66 0 97.18 43.35 97.18 96.82z" p-id="3806" fill="#67F7F9"></path><path d="M199.15 706.2a27.44 27.44 0 0 1 13.26 36.46l-23.19 49.74a27.44 27.44 0 1 1-49.74-23.18l23.21-49.74a27.44 27.44 0 0 1 36.46-13.28zM480.31 706.2a27.44 27.44 0 0 1 13.3 36.45l-23.2 49.75a27.44 27.44 0 1 1-49.74-23.18l23.18-49.74a27.44 27.44 0 0 1 36.45-13.3zM754.67 706.2A27.44 27.44 0 0 1 768 742.65l-23.24 49.75A27.44 27.44 0 1 1 695 769.22l23.18-49.74a27.44 27.44 0 0 1 36.45-13.3zM343.14 761.07a27.44 27.44 0 0 1 13.3 36.45l-23.18 49.71a27.44 27.44 0 1 1-49.74-23.18l23.18-49.74a27.44 27.44 0 0 1 36.45-13.3zM617.49 761.07a27.44 27.44 0 0 1 13.3 36.45l-23.18 49.71a27.44 27.44 0 1 1-49.74-23.18l23.13-49.7a27.44 27.44 0 0 1 36.45-13.3zM871.24 761.07a27.44 27.44 0 0 1 13.26 36.46l-23.18 49.71A27.44 27.44 0 0 1 811 825.37q0.28-0.65 0.59-1.28l23.18-49.74a27.44 27.44 0 0 1 36.46-13.28z" p-id="3807" fill="#67F7F9"></path><path d="M519 183.37a46.15 46.15 0 0 1 4.17-2.39c24.83-12.43 55.31-20.74 84.83-20.74 89.88 0 164.83 65 181.65 151.36C851 328.39 896.1 385.29 896.1 452.89c0 80.8-64.47 146.31-144 146.31h-12.77a27.44 27.44 0 0 1 0-54.82H744a97 97 0 0 0 97.18-96.85c0-53.47-43.51-96.82-97.18-96.82 0-74.87-60.91-135.56-136-135.56-22.06 0-47 11.66-66.34 18.19a25.79 25.79 0 0 1-16.82 0.05 27.44 27.44 0 0 1-5.9-50z" p-id="3808" fill="#67F7F9"></path></svg>