<?xml version="1.0" standalone="no"?><!DOCTYPE svg PUBLIC "-//W3C//DTD SVG 1.1//EN" "http://www.w3.org/Graphics/SVG/1.1/DTD/svg11.dtd"><svg t="1535421473662" class="icon" style="" viewBox="0 0 1024 1024" version="1.1" xmlns="http://www.w3.org/2000/svg" p-id="6389" xmlns:xlink="http://www.w3.org/1999/xlink" width="200" height="200"><defs><style type="text/css"></style></defs><path d="M754 326.68C731.6 213.5 631.77 128.14 512 128.14s-219.62 85.35-242 198.54a191.93 191.93 0 0 0-142 185.51c0 106 86 191.81 192 191.74h383.9a191.93 191.93 0 0 0 185.51-142C917 459.58 856.38 354.25 754 326.68z m-50.1 322.41H320a137.09 137.09 0 1 1 0-274.18c0-106 86-191.91 192-191.91s191.9 85.91 191.9 191.91a137.09 137.09 0 0 1 0 274.18z" p-id="6390" fill="#67F7F9"></path><path d="M690.2 794.22v-21.75a13.71 13.71 0 0 1 27.42 0v21.74L733 778.86a13.71 13.71 0 0 1 19.41 19.36L737 813.6h21.72a13.71 13.71 0 0 1 0 27.42H737l15.35 15.35A13.71 13.71 0 0 1 733 875.79l-15.38-15.35v21.72a13.71 13.71 0 0 1-27.42 0v-21.75l-15.35 15.35a13.71 13.71 0 0 1-19.41-19.36l15.34-15.4h-21.71a13.71 13.71 0 0 1 0-27.42h21.74l-15.35-15.35a13.71 13.71 0 0 1 19.36-19.41l15.38 15.35zM498.27 794.22v-21.75a13.71 13.71 0 1 1 27.42 0v21.74L541 778.86a13.71 13.71 0 0 1 19.41 19.36L545.1 813.6h21.72a13.71 13.71 0 0 1 0 27.42h-21.75l15.35 15.35a13.71 13.71 0 0 1-19.36 19.41l-15.38-15.35v21.72a13.71 13.71 0 1 1-27.42 0v-21.74l-15.35 15.35a13.71 13.71 0 0 1-19.41-19.36l15.35-15.4h-21.71a13.71 13.71 0 0 1 0-27.42h21.74l-15.35-15.35a13.71 13.71 0 0 1 19.36-19.41l15.38 15.35zM306.34 794.22v-21.75a13.71 13.71 0 0 1 27.42 0v21.74l15.35-15.35a13.71 13.71 0 0 1 19.41 19.36l-15.35 15.38h21.72a13.71 13.71 0 1 1 0 27.42h-21.75l15.35 15.35a13.71 13.71 0 0 1-19.36 19.41l-15.38-15.35v21.72a13.71 13.71 0 0 1-27.42 0v-21.74L291 875.76a13.71 13.71 0 0 1-19.41-19.36l15.34-15.4h-21.72a13.71 13.71 0 0 1 0-27.42H287l-15.4-15.33a13.71 13.71 0 0 1 19.4-19.41l15.38 15.35z" p-id="6391" fill="#67F7F9"></path></svg>