<?xml version="1.0" standalone="no"?><!DOCTYPE svg PUBLIC "-//W3C//DTD SVG 1.1//EN" "http://www.w3.org/Graphics/SVG/1.1/DTD/svg11.dtd"><svg t="1535421306659" class="icon" style="" viewBox="0 0 1024 1024" version="1.1" xmlns="http://www.w3.org/2000/svg" p-id="1571" xmlns:xlink="http://www.w3.org/1999/xlink" width="200" height="200"><defs><style type="text/css"></style></defs><path d="M753.9 326.78C731.48 213.65 631.7 128.35 512 128.35s-219.5 85.31-241.92 198.43a191.83 191.83 0 0 0-141.95 185.41c0.11 105.94 86.08 191.74 192 191.63H703.8A191.83 191.83 0 0 0 889.22 561.9c27.56-102.29-33.03-207.56-135.32-235.12zM703.8 649H320.15a137 137 0 1 1 0-274c0-106 85.85-191.85 191.85-191.85S703.8 269 703.8 375a137 137 0 0 1 0 274z" p-id="1572" fill="#67F7F9"></path><path d="M594.35 794.07v-21.73a13.7 13.7 0 0 1 27.4 0v21.73l15.35-15.35a13.7 13.7 0 0 1 19.4 19.35l-15.35 15.37h21.7a13.7 13.7 0 0 1 0 27.4h-21.72l15.35 15.35a13.7 13.7 0 0 1-19.35 19.4l-15.37-15.35V882a13.7 13.7 0 1 1-27.4 0v-21.78L579 875.57a13.7 13.7 0 0 1-19.4-19.35l15.4-15.37h-21.7a13.7 13.7 0 1 1 0-27.4H575l-15.37-15.35a13.7 13.7 0 0 1 19-19.74l0.34 0.34 15.38 15.3zM786.18 794.07v-21.73a13.7 13.7 0 0 1 27.4 0v21.73l15.35-15.35a13.7 13.7 0 0 1 19.4 19.35L833 813.44h21.7a13.7 13.7 0 1 1 0 27.4H833l15.35 15.35a13.7 13.7 0 0 1-19.35 19.4l-15.37-15.35V882a13.7 13.7 0 1 1-27.4 0v-21.78l-15.35 15.35a13.7 13.7 0 0 1-19.4-19.35l15.35-15.37h-21.7a13.7 13.7 0 0 1 0-27.4h21.67l-15.34-15.35a13.7 13.7 0 0 1 19-19.74l0.34 0.34 15.38 15.3zM403.07 794.07v-21.73a13.7 13.7 0 0 1 27.4 0v21.73l15.35-15.35a13.7 13.7 0 0 1 19.4 19.35l-15.35 15.37h21.7a13.7 13.7 0 0 1 0 27.4h-21.72l15.37 15.35a13.71 13.71 0 1 1-19.37 19.4l-15.35-15.34V882a13.7 13.7 0 1 1-27.4 0v-21.78l-15.37 15.35a13.7 13.7 0 0 1-19.4-19.35l15.4-15.37H362a13.7 13.7 0 0 1 0-27.4h21.73l-15.35-15.35a13.71 13.71 0 1 1 19.37-19.4L403.1 794zM211.79 794.07v-21.73a13.7 13.7 0 0 1 27.4 0v21.73l15.37-15.35a13.7 13.7 0 0 1 19.37 19.35l-15.33 15.37h21.73a13.7 13.7 0 0 1 0 27.4H258.6l15.35 15.35a13.71 13.71 0 1 1-19.37 19.4l-15.35-15.35V882a13.7 13.7 0 1 1-27.4 0v-21.78l-15.37 15.35a13.7 13.7 0 0 1-19.37-19.35l15.35-15.37h-21.7a13.7 13.7 0 0 1 0-27.4h21.7l-15.37-15.35a13.71 13.71 0 1 1 19.37-19.4l15.35 15.3z" p-id="1573" fill="#67F7F9"></path></svg>