<?xml version="1.0" standalone="no"?><!DOCTYPE svg PUBLIC "-//W3C//DTD SVG 1.1//EN" "http://www.w3.org/Graphics/SVG/1.1/DTD/svg11.dtd"><svg t="1535421379359" class="icon" style="" viewBox="0 0 1024 1024" version="1.1" xmlns="http://www.w3.org/2000/svg" p-id="3124" xmlns:xlink="http://www.w3.org/1999/xlink" width="200" height="200"><defs><style type="text/css"></style></defs><path d="M319.94 388.53m-27.44 0a27.44 27.44 0 1 0 54.88 0 27.44 27.44 0 1 0-54.88 0Z" p-id="3125" fill="#67F7F9"></path><path d="M512 388.53m-27.44 0a27.44 27.44 0 1 0 54.88 0 27.44 27.44 0 1 0-54.88 0Z" p-id="3126" fill="#67F7F9"></path><path d="M704.06 388.53m-27.44 0a27.44 27.44 0 1 0 54.88 0 27.44 27.44 0 1 0-54.88 0Z" p-id="3127" fill="#67F7F9"></path><path d="M210.19 498.28m-27.44 0a27.44 27.44 0 1 0 54.88 0 27.44 27.44 0 1 0-54.88 0Z" p-id="3128" fill="#67F7F9"></path><path d="M411.39 498.28m-27.44 0a27.44 27.44 0 1 0 54.88 0 27.44 27.44 0 1 0-54.88 0Z" p-id="3129" fill="#67F7F9"></path><path d="M612.61 498.28m-27.44 0a27.44 27.44 0 1 0 54.88 0 27.44 27.44 0 1 0-54.88 0Z" p-id="3130" fill="#67F7F9"></path><path d="M813.81 498.28m-27.44 0a27.44 27.44 0 1 0 54.88 0 27.44 27.44 0 1 0-54.88 0Z" p-id="3131" fill="#67F7F9"></path><path d="M210.19 278.78m-27.44 0a27.44 27.44 0 1 0 54.88 0 27.44 27.44 0 1 0-54.88 0Z" p-id="3132" fill="#67F7F9"></path><path d="M411.39 278.78m-27.44 0a27.44 27.44 0 1 0 54.88 0 27.44 27.44 0 1 0-54.88 0Z" p-id="3133" fill="#67F7F9"></path><path d="M612.61 278.78m-27.44 0a27.44 27.44 0 1 0 54.88 0 27.44 27.44 0 1 0-54.88 0Z" p-id="3134" fill="#67F7F9"></path><path d="M813.81 278.78m-27.44 0a27.44 27.44 0 1 0 54.88 0 27.44 27.44 0 1 0-54.88 0Z" p-id="3135" fill="#67F7F9"></path><path d="M155.32 608h713.36a27.44 27.44 0 0 1 0 54.87H155.32a27.44 27.44 0 0 1 0-54.87zM155.32 717.78h713.36a27.44 27.44 0 1 1 0 54.87H155.32a27.44 27.44 0 1 1 0-54.87z" p-id="3136" fill="#67F7F9"></path></svg>