<?xml version="1.0" standalone="no"?><!DOCTYPE svg PUBLIC "-//W3C//DTD SVG 1.1//EN" "http://www.w3.org/Graphics/SVG/1.1/DTD/svg11.dtd"><svg t="1535421489240" class="icon" style="" viewBox="0 0 1024 1024" version="1.1" xmlns="http://www.w3.org/2000/svg" p-id="6893" xmlns:xlink="http://www.w3.org/1999/xlink" width="200" height="200"><defs><style type="text/css"></style></defs><path d="M582.79 339a109.77 109.77 0 0 1 144.7 164.32l-0.05-0.05a27.44 27.44 0 1 1-39.38-38.23q0.79-0.82 1.65-1.57a54.88 54.88 0 0 0-73.79-80.68l-0.05-0.05A27.44 27.44 0 0 1 582.79 339zM896.15 451.11a27.44 27.44 0 0 1-27.44 27.44h-27.45a27.44 27.44 0 1 1 0-54.88h27.44a27.44 27.44 0 0 1 27.45 27.44zM585.92 204.87a27.44 27.44 0 0 1 32.92 20.55l6.15 26.7a27.44 27.44 0 0 1-53.46 12.35l-6.17-26.73a27.44 27.44 0 0 1 20.55-32.92zM818 258.36a27.44 27.44 0 0 1 4.06 38.58l-17.29 21.32a27.44 27.44 0 0 1-43.51-33.45q0.42-0.55 0.87-1.07l17.29-21.32a27.44 27.44 0 0 1 38.58-4.06zM369.45 718.43a27.44 27.44 0 0 1 13.3 36.46l-23.19 49.7a27.44 27.44 0 0 1-49.73-23.19L333 731.71a27.44 27.44 0 0 1 36.46-13.3zM496.48 718.43a27.44 27.44 0 0 1 13.27 36.47l-23.19 49.7a27.44 27.44 0 0 1-49.73-23.19l23.17-49.7a27.44 27.44 0 0 1 36.46-13.28z" p-id="6894" fill="#67F7F9"></path><path d="M565.5 700.64c45.69-8 83.7-49 83.7-96.71a97 97 0 0 0-97.2-96.84c0-74.86-60.92-135.56-136-135.56s-136.06 60.7-136.06 135.56a97 97 0 0 0-97.17 96.84v0.07c0 47.8 39.27 88.86 85.13 96.76a27.44 27.44 0 0 1-4.53 54.69c-75.55-4.5-135.48-68.19-135.48-146.1 0-67.59 45.11-124.45 106.42-141.3 16.85-86.31 91.79-151.37 181.67-151.37S580.81 381.74 597.63 468c61.31 16.82 106.42 73.71 106.42 141.33 0 77.3-59 140.61-133.78 146a27.44 27.44 0 0 1-4.77-54.64z" p-id="6895" fill="#67F7F9"></path></svg>