<?xml version="1.0" standalone="no"?><!DOCTYPE svg PUBLIC "-//W3C//DTD SVG 1.1//EN" "http://www.w3.org/Graphics/SVG/1.1/DTD/svg11.dtd"><svg t="1535421403920" class="icon" style="" viewBox="0 0 1024 1024" version="1.1" xmlns="http://www.w3.org/2000/svg" p-id="3974" xmlns:xlink="http://www.w3.org/1999/xlink" width="200" height="200"><defs><style type="text/css"></style></defs><path d="M278.42 346.08m-27.47 0a27.47 27.47 0 1 0 54.94 0 27.47 27.47 0 1 0-54.94 0Z" p-id="3975" fill="#67F7F9"></path><path d="M182.31 429.49m-27.47 0a27.47 27.47 0 1 0 54.94 0 27.47 27.47 0 1 0-54.94 0Z" p-id="3976" fill="#67F7F9"></path><path d="M374.63 457a27.47 27.47 0 1 1 27.45-27.47A27.47 27.47 0 0 1 374.63 457z" p-id="3977" fill="#67F7F9"></path><path d="M182.31 264.78m-27.47 0a27.47 27.47 0 1 0 54.94 0 27.47 27.47 0 1 0-54.94 0Z" p-id="3978" fill="#67F7F9"></path><path d="M374.63 292.26a27.47 27.47 0 1 1 27.45-27.47 27.47 27.47 0 0 1-27.45 27.47z" p-id="3979" fill="#67F7F9"></path><path d="M182.31 759.28m-27.47 0a27.47 27.47 0 1 0 54.94 0 27.47 27.47 0 1 0-54.94 0Z" p-id="3980" fill="#67F7F9"></path><path d="M292.24 731.83h55a27.47 27.47 0 0 1 0 54.95h-55a27.47 27.47 0 0 1 0-54.95zM651.95 566.88A164.84 164.84 0 1 0 484.52 404a27.47 27.47 0 0 0 54.95 0v-2a109.89 109.89 0 1 1 109.89 109.94v0.06H154.84a27.47 27.47 0 1 0 0 54.95h494.52c0.88 0 1.73 0 2.58-0.11zM810.14 621.94a82.42 82.42 0 1 1 8.13 164.65 27.47 27.47 0 0 1-4.45-54.67v-0.19h0.38a27.47 27.47 0 0 0 1.65-54.89l-1.65 0.05H154.84a27.47 27.47 0 1 1 0-54.95z" p-id="3981" fill="#67F7F9"></path><path d="M649 754.25v10.11a27.47 27.47 0 0 1-27 22.42h-55a27.47 27.47 0 0 1 0-54.95h55a27.47 27.47 0 0 1 27 22.42z" p-id="3982" fill="#67F7F9"></path><path d="M457.05 759.31m-27.47 0a27.47 27.47 0 1 0 54.94 0 27.47 27.47 0 1 0-54.94 0Z" p-id="3983" fill="#67F7F9"></path></svg>