<?xml version="1.0" standalone="no"?><!DOCTYPE svg PUBLIC "-//W3C//DTD SVG 1.1//EN" "http://www.w3.org/Graphics/SVG/1.1/DTD/svg11.dtd"><svg t="1535421408038" class="icon" style="" viewBox="0 0 1024 1024" version="1.1" xmlns="http://www.w3.org/2000/svg" p-id="4149" xmlns:xlink="http://www.w3.org/1999/xlink" width="200" height="200"><defs><style type="text/css"></style></defs><path d="M182.63 814.65m-27.52 0a27.52 27.52 0 1 0 55.04 0 27.52 27.52 0 1 0-55.04 0Z" p-id="4150" fill="#67F7F9"></path><path d="M292.74 787.18h55.09a27.52 27.52 0 1 1 0 55h-55.12a27.52 27.52 0 0 1 0-55zM457.86 842.17a27.52 27.52 0 1 1 27.49-27.52 27.52 27.52 0 0 1-27.49 27.52zM650.49 512H155.11a27.52 27.52 0 0 1 0-55h495.36a110.08 110.08 0 1 0-110.1-110.06v2a27.52 27.52 0 0 1-55-0.55v-1.38A167.24 167.24 0 1 1 659 512q-4.26 0.11-8.53 0z" p-id="4151" fill="#67F7F9"></path><path d="M812.25 622.15H155.11a27.52 27.52 0 1 1 0-55h660.47a13.66 13.66 0 0 1 1.51 0.06 27.52 27.52 0 0 0-1.9-55V512a27.52 27.52 0 1 1 4.46-54.71 82.56 82.56 0 0 1-7.4 164.9zM810.58 677.19A82.56 82.56 0 0 1 819.66 842a27.52 27.52 0 0 1-4.46-54.71v-0.25h0.39a27.52 27.52 0 0 0 2.15-54.93q-1.07 0.08-2.15 0.08H155.11a27.52 27.52 0 0 1 0-55h655.47z" p-id="4152" fill="#67F7F9"></path><path d="M567.94 787.18H623a27.52 27.52 0 0 1 0 55h-55.09a27.52 27.52 0 0 1 0-55z" p-id="4153" fill="#67F7F9"></path><path d="M182.66 374.47A27.52 27.52 0 1 1 210.15 347a27.52 27.52 0 0 1-27.49 27.52zM292.74 319.49h110.05a27.52 27.52 0 0 1 0 55H292.74a27.52 27.52 0 0 1 0-55z" p-id="4154" fill="#67F7F9"></path></svg>