<?xml version="1.0" standalone="no"?><!DOCTYPE svg PUBLIC "-//W3C//DTD SVG 1.1//EN" "http://www.w3.org/Graphics/SVG/1.1/DTD/svg11.dtd"><svg t="1535421384519" class="icon" style="" viewBox="0 0 1024 1024" version="1.1" xmlns="http://www.w3.org/2000/svg" p-id="3302" xmlns:xlink="http://www.w3.org/1999/xlink" width="200" height="200"><defs><style type="text/css"></style></defs><path d="M236.46 733.57c-95.53-46.17-135.55-161-89.38-256.56a192.11 192.11 0 0 1 122.77-101.85C292.29 261.94 392.2 176.54 512 176.54s219.74 85.4 242.18 198.64c102.41 27.76 162.92 133.28 135.16 235.68a192.11 192.11 0 0 1-101.67 122.66h-0.05A27.44 27.44 0 0 1 764.08 684a137.17 137.17 0 0 0-60-260.53c0-106.06-86-192-192-192s-192 86-192 192a137.17 137.17 0 0 0-58.87 261.11 27.44 27.44 0 1 1-24.69 49z" p-id="3303" fill="#67F7F9"></path><path d="M368.36 709.32a27.43 27.43 0 0 1 13.3 36.45l-23.18 49.71a27.44 27.44 0 1 1-49.74-23.18l23.16-49.7a27.43 27.43 0 0 1 36.45-13.3zM702.91 735.46a41.15 41.15 0 0 1-34.79 74.59 41.15 41.15 0 1 1 34.79-74.59zM499.54 693.33h64.52a27.43 27.43 0 0 1 28.31 38.82L546 831.59a27.45 27.45 0 1 1-49.76-23.18l28.09-60.22h-67.8A27.43 27.43 0 0 1 432 708.42L478.34 609a27.44 27.44 0 1 1 49.74 23.18l-28.53 61.18z" p-id="3304" fill="#67F7F9"></path></svg>