<?xml version="1.0" standalone="no"?><!DOCTYPE svg PUBLIC "-//W3C//DTD SVG 1.1//EN" "http://www.w3.org/Graphics/SVG/1.1/DTD/svg11.dtd"><svg t="1535421425192" class="icon" style="" viewBox="0 0 1024 1024" version="1.1" xmlns="http://www.w3.org/2000/svg" p-id="4824" xmlns:xlink="http://www.w3.org/1999/xlink" width="200" height="200"><defs><style type="text/css"></style></defs><path d="M793 347.43c-98.47-56.72-224.27-22.89-281 75.57a205.76 205.76 0 0 0-75.57-75.57c-98.43-56.72-224.27-22.89-281 75.57S132.54 647.27 231 704s224.27 22.89 281-75.57A205.76 205.76 0 0 0 587.57 704c98.46 56.73 224.27 22.89 281-75.57s22.89-224.27-75.57-281zM333.68 676.6a150.89 150.89 0 1 1 150.89-150.88A150.89 150.89 0 0 1 333.68 676.6z m358.56 0a150.89 150.89 0 1 1 150.89-150.88A150.89 150.89 0 0 1 692.24 676.6z" p-id="4825" fill="#67F7F9"></path><path d="M210.23 265.09m-27.43 0a27.43 27.43 0 1 0 54.86 0 27.43 27.43 0 1 0-54.86 0Z" p-id="4826" fill="#67F7F9"></path><path d="M512 265.09m-27.43 0a27.43 27.43 0 1 0 54.86 0 27.43 27.43 0 1 0-54.86 0Z" p-id="4827" fill="#67F7F9"></path><path d="M813.77 265.09m-27.43 0a27.43 27.43 0 1 0 54.86 0 27.43 27.43 0 1 0-54.86 0Z" p-id="4828" fill="#67F7F9"></path><path d="M210.23 758.91m-27.43 0a27.43 27.43 0 1 0 54.86 0 27.43 27.43 0 1 0-54.86 0Z" p-id="4829" fill="#67F7F9"></path><path d="M512 758.91m-27.43 0a27.43 27.43 0 1 0 54.86 0 27.43 27.43 0 1 0-54.86 0Z" p-id="4830" fill="#67F7F9"></path><path d="M813.77 758.91m-27.43 0a27.43 27.43 0 1 0 54.86 0 27.43 27.43 0 1 0-54.86 0Z" p-id="4831" fill="#67F7F9"></path></svg>