<?xml version="1.0" standalone="no"?><!DOCTYPE svg PUBLIC "-//W3C//DTD SVG 1.1//EN" "http://www.w3.org/Graphics/SVG/1.1/DTD/svg11.dtd"><svg t="1535421466275" class="icon" style="" viewBox="0 0 1024 1024" version="1.1" xmlns="http://www.w3.org/2000/svg" p-id="6220" xmlns:xlink="http://www.w3.org/1999/xlink" width="200" height="200"><defs><style type="text/css"></style></defs><path d="M498.32 736.44v-21.7a13.68 13.68 0 0 1 27.37 0v21.7L541 721.11a13.68 13.68 0 0 1 19.38 19.32l-15.33 15.35h21.68a13.68 13.68 0 0 1 0 27.37H545l15.33 15.33A13.68 13.68 0 0 1 541 817.86l-15.35-15.33v21.68a13.68 13.68 0 0 1-27.37 0v-21.7L483 817.83a13.68 13.68 0 0 1-19.38-19.32l15.33-15.35h-21.69a13.68 13.68 0 0 1 0-27.37H479l-15.33-15.33A13.68 13.68 0 0 1 483 721.08l15.35 15.33z" p-id="6221" fill="#67F7F9"></path><path d="M236.14 743.78c-95.64-46.22-135.71-161.22-89.49-256.86a192.34 192.34 0 0 1 122.91-102C292 271.6 392.06 186.1 512 186.1S732 271.6 754.49 385C857 412.77 917.59 518.41 889.8 620.93A192.34 192.34 0 0 1 788 743.72h-0.05a27.47 27.47 0 0 1-23.56-49.63 137.32 137.32 0 0 0-60.09-260.83C704.28 327.11 618.2 241 512 241s-192.23 86.11-192.23 192.29a137.32 137.32 0 0 0-58.94 261.41 27.48 27.48 0 1 1-24.72 49.08z" p-id="6222" fill="#67F7F9"></path><path d="M391.1 719.5a27.46 27.46 0 0 1 13.28 36.5l-23.21 49.77A27.46 27.46 0 1 1 331 783.32q0.17-0.38 0.36-0.76l23.21-49.77a27.46 27.46 0 0 1 36.49-13.3zM679.48 719.5a27.46 27.46 0 0 1 13.28 36.5l-23.21 49.77a27.46 27.46 0 1 1-50.12-22.47q0.17-0.38 0.36-0.76L643 732.79a27.46 27.46 0 0 1 36.49-13.3z" p-id="6223" fill="#67F7F9"></path></svg>