<?xml version="1.0" standalone="no"?><!DOCTYPE svg PUBLIC "-//W3C//DTD SVG 1.1//EN" "http://www.w3.org/Graphics/SVG/1.1/DTD/svg11.dtd"><svg t="1535421416358" class="icon" style="" viewBox="0 0 1024 1024" version="1.1" xmlns="http://www.w3.org/2000/svg" p-id="4488" xmlns:xlink="http://www.w3.org/1999/xlink" width="200" height="200"><defs><style type="text/css"></style></defs><path d="M754.1 340.33c-22.43-113.22-122.29-198.6-242.1-198.6s-219.69 85.38-242.13 198.6a192 192 0 0 0-142 185.57c0.11 106 86.15 191.9 192.18 191.8H704a192 192 0 0 0 185.57-142c27.55-102.43-33.08-207.78-135.47-235.37zM704 662.85H320a137.14 137.14 0 0 1 0-274.27c0-106 86-192 192-192s192 86 192 192a137.14 137.14 0 0 1 0 274.27z" p-id="4489" fill="#67F7F9"></path><path d="M443.41 882.27c-22.71 0-41.14-19.64-41.14-43.88q0-24.27 41.14-65.83 41.14 41.55 41.14 65.83c0 24.24-18.43 43.88-41.14 43.88zM580.54 882.27c-22.71 0-41.14-19.64-41.14-43.88q0-24.27 41.14-65.83 41.14 41.55 41.14 65.83c0.01 24.24-18.43 43.88-41.14 43.88z" p-id="4490" fill="#67F7F9"></path></svg>