<?xml version="1.0" standalone="no"?><!DOCTYPE svg PUBLIC "-//W3C//DTD SVG 1.1//EN" "http://www.w3.org/Graphics/SVG/1.1/DTD/svg11.dtd"><svg t="1534152111769" class="icon" style="" viewBox="0 0 1345 1024" version="1.1" xmlns="http://www.w3.org/2000/svg" p-id="3949" xmlns:xlink="http://www.w3.org/1999/xlink" width="262.6953125" height="200"><defs><style type="text/css"></style></defs><path d="M819.2 43.885714m-43.885714 0a43.885714 43.885714 0 1 0 87.771428 0 43.885714 43.885714 0 1 0-87.771428 0Z" fill="#67F7F9" p-id="3950"></path><path d="M1170.285714 131.657143m-43.885714 0a43.885714 43.885714 0 1 0 87.771429 0 43.885714 43.885714 0 1 0-87.771429 0Z" fill="#67F7F9" p-id="3951"></path><path d="M219.428571 43.885714m-43.885714 0a43.885714 43.885714 0 1 0 87.771429 0 43.885714 43.885714 0 1 0-87.771429 0Z" fill="#67F7F9" p-id="3952"></path><path d="M497.371429 117.028571m-29.257143 0a29.257143 29.257143 0 1 0 58.514285 0 29.257143 29.257143 0 1 0-58.514285 0Z" fill="#67F7F9" p-id="3953"></path><path d="M570.514286 980.114286m-43.885715 0a43.885714 43.885714 0 1 0 87.771429 0 43.885714 43.885714 0 1 0-87.771429 0Z" fill="#67F7F9" p-id="3954"></path><path d="M219.428571 892.342857m-43.885714 0a43.885714 43.885714 0 1 0 87.771429 0 43.885714 43.885714 0 1 0-87.771429 0Z" fill="#67F7F9" p-id="3955"></path><path d="M1170.285714 980.114286m-43.885714 0a43.885714 43.885714 0 1 0 87.771429 0 43.885714 43.885714 0 1 0-87.771429 0Z" fill="#67F7F9" p-id="3956"></path><path d="M892.342857 906.971429m-29.257143 0a29.257143 29.257143 0 1 0 58.514286 0 29.257143 29.257143 0 1 0-58.514286 0Z" fill="#67F7F9" p-id="3957"></path><path d="M292.571429 775.314286C114.834286 775.314286 0 671.890286 0 512s114.834286-263.314286 292.571429-263.314286c193.389714 0 409.6 112.64 409.6 263.314286S485.961143 775.314286 292.571429 775.314286z m0-468.114286C146.285714 307.2 58.514286 383.707429 58.514286 512s87.771429 204.8 234.057143 204.8c173.933714 0 351.085714-103.424 351.085714-204.8S466.505143 307.2 292.571429 307.2z" fill="#67F7F9" p-id="3958"></path><path d="M1053.257143 775.314286c-193.389714 0-409.6-112.64-409.6-263.314286s216.210286-263.314286 409.6-263.314286c177.737143 0 292.571429 103.424 292.571428 263.314286s-114.834286 263.314286-292.571428 263.314286z m0-468.114286c-173.933714 0-351.085714 103.424-351.085714 204.8s177.152 204.8 351.085714 204.8c146.285714 0 234.057143-76.507429 234.057143-204.8s-87.771429-204.8-234.057143-204.8z" fill="#67F7F9" p-id="3959"></path></svg>